<svg width="50" height="50" viewBox="0 0 50 50" xmlns="http://www.w3.org/2000/svg" xmlns:xlink="http://www.w3.org/1999/xlink" id="Layer_1" overflow="hidden"><path d="M0 44.4C0 45.4 0.7 46.3 1.9 46.3L48.1 46.3C49.1 46.3 50 45.6 50 44.4L50 11.3 0 11.3 0 44.4Z" fill="#A0A1A2"/><path d="M48.1 3.7 1.9 3.7C0.7 3.7 0 4.6 0 5.6L0 11.3 50 11.3 50 5.6C50 4.6 49.3 3.7 48.1 3.7" fill="#7A7A7A"/><rect x="18.8" y="14.6" width="12.6" height="7.6" fill="#FFFFFF"/><rect x="18.8" y="24.9" width="12.6" height="7.6" fill="#FCD116"/><rect x="33.8" y="24.9" width="12.6" height="7.6" fill="#FCD116"/><rect x="33.8" y="14.6" width="12.6" height="7.6" fill="#FFFFFF"/><rect x="3.8" y="14.6" width="12.6" height="7.6" fill="#FFFFFF"/><rect x="3.8" y="24.9" width="12.6" height="7.6" fill="#FFFFFF"/><rect x="3.8" y="35.1" width="12.6" height="7.6" fill="#FCD116"/><rect x="18.8" y="35.1" width="12.6" height="7.6" fill="#FCD116"/><rect x="33.8" y="35.1" width="12.6" height="7.6" fill="#FCD116"/><path d="M1.9 3.7C1 3.7 0 4.6 0 5.6L0 13 0 16.3 0 44.4C0 45.4 1 46.3 1.9 46.3L4 46.3 43.6 3.7 1.9 3.7Z" fill="#FFFFFF" opacity="0.2"/></svg>