<svg xmlns="http://www.w3.org/2000/svg" viewBox="0 0 16 16"><defs><style>.icon-canvas-transparent,.icon-vs-out{fill:#252526;}.icon-canvas-transparent{opacity:0;}.icon-folder{fill:#d9af6d;}.icon-vs-bg{fill:#c5c5c5;}</style></defs><title>CloudFolder_16x</title><g id="canvas"><path id="_Compound_Path_" data-name="&lt;Compound Path&gt;" class="icon-canvas-transparent" d="M0,0H16V16H0Z"/></g><g id="outline" style="display: none;"><path class="icon-vs-out" d="M15,4.5v8A1.505,1.505,0,0,1,13.5,14h-1a3.253,3.253,0,0,1-3,2H3.875A3.87,3.87,0,0,1,.156,13.153,1.479,1.479,0,0,1,0,12.5V2.5A1.5,1.5,0,0,1,1.5,1H9.61l1,2H13.5A1.505,1.505,0,0,1,15,4.5Z" style="display: none;"/></g><g id="iconBg"><path class="icon-folder" d="M13.5,4h-3.5l-1-2H1.5a.5.5,0,0,0-.5.5V9.545A3.857,3.857,0,0,1,3.71,8.253,4.179,4.179,0,0,1,10.6,9.691,3.267,3.267,0,0,1,12.75,12.75c0,.086-.019.166-.025.25H13.5a.5.5,0,0,0,.5-.5v-8A.5.5,0,0,0,13.5,4ZM2,4V3H8.374l.5,1Z"/><path class="icon-vs-bg" d="M6.688,9a2.187,2.187,0,0,1,2.187,2.188V11.5H9.5a1.25,1.25,0,0,1,0,2.5H3.875a1.875,1.875,0,1,1,.771-3.58A2.183,2.183,0,0,1,6.688,9m0-1A3.194,3.194,0,0,0,4.155,9.264c-.093-.009-.186-.014-.28-.014a2.875,2.875,0,0,0,0,5.75H9.5a2.25,2.25,0,0,0,.3-4.479A3.194,3.194,0,0,0,6.688,8Z"/></g></svg>