<svg width="50" height="50" viewBox="0 0 50 50" xmlns="http://www.w3.org/2000/svg" xmlns:xlink="http://www.w3.org/1999/xlink" id="Layer_1" overflow="hidden"><path d="M0 44.4C0 45.4 0.8 46.3 1.8 46.3L48.1 46.3C49.1 46.3 50 45.5 50 44.4L50 11.3 0 11.3 0 44.4Z" fill="#A0A1A2"/><path d="M48.1 3.7 1.8 3.7C0.8 3.7 0 4.5 0 5.6L0 11.3 50 11.3 50 5.6C50 4.5 49.2 3.7 48.1 3.7" fill="#7A7A7A"/><path d="M38 20.9 38 18.5 22.8 18.5 19.2 14.9 9.7 14.9 9.7 41.2C9.7 42 10.3 42.6 11.1 42.6L11.1 42.6 38.3 42.6C39.1 42.6 39.7 42 39.7 41.2L39.7 20.9 38 20.9Z" fill="#FFFFFF" opacity="0.8"/><path d="M12.5 20.9 12.5 41.2C12.5 42 11.9 42.6 11.1 42.6 10.3 42.6 9.7 42 9.7 41.2L9.7 14.9 19.3 14.9 22.9 18.5 38 18.5 38 20.9 12.5 20.9Z" fill="#0072C6"/><path d="M2 3.7C0.9 3.7 0 4.6 0 5.7L0 13 0 16.3 0 44.3C0 45.4 0.9 46.3 2 46.3L4.2 46.3 43.6 3.7 2 3.7Z" fill="#FFFFFF" opacity="0.2"/></svg>