<svg xmlns="http://www.w3.org/2000/svg" viewBox="0 0 16 16"><defs><style>.icon-canvas-transparent,.icon-vs-out{fill:#f6f6f6;}.icon-canvas-transparent{opacity:0;}.graph-yellow{fill:#fcb714;}.icon-disabled-grey{fill:#848484;}.icon-vs-bg{fill:#424242;}</style></defs><title>AzureTable_16x</title><g id="canvas"><path class="icon-canvas-transparent" d="M16,16H0V0H16Z"/></g><g id="outline" style="display: none;"><path class="icon-vs-out" d="M16,15H1V1H16Z" style="display: none;"/></g><g id="iconBg"><path class="graph-yellow" d="M14,8v2H11V8ZM7,10h3V8H7Zm4,3h3V11H11ZM7,13h3V11H7ZM3,13H6V11H3Z"/><path class="icon-disabled-grey" d="M14,5V7H11V5H10V7H7V5H6V7H3V5H2v9H15V5ZM6,13H3V11H6Zm0-3H3V8H6Zm4,3H7V11h3Zm0-3H7V8h3Zm4,3H11V11h3Zm0-3H11V8h3Z"/><path class="icon-vs-bg" d="M15,2V5H2V2Z"/></g></svg>